<?xml version="1.0" standalone="no"?>
<!DOCTYPE svg PUBLIC "-//W3C//DTD SVG 20010904//EN"
 "http://www.w3.org/TR/2001/REC-SVG-20010904/DTD/svg10.dtd">
<svg version="1.0" xmlns="http://www.w3.org/2000/svg"
 width="300.000000pt" height="300.000000pt" viewBox="0 0 300.000000 300.000000"
 preserveAspectRatio="xMidYMid meet">
<metadata>
Created by potrace 1.10, written by Peter Selinger 2001-2011
</metadata>
<g transform="translate(0.000000,300.000000) scale(0.100000,-0.100000)"
fill="#000000" stroke="none">
<path d="M1101 2965 c-1 -5 -15 -75 -31 -155 -131 -628 -286 -779 -933 -909
l-138 -27 68 -13 c344 -62 567 -142 697 -249 145 -120 245 -345 311 -702 25
-133 30 -146 39 -85 12 80 55 273 83 365 55 187 131 320 231 411 119 106 362
198 677 254 l100 18 -140 29 c-647 130 -801 281 -930 911 -19 89 -34 158 -34
152z m44 -366 c112 -411 275 -574 681 -684 54 -15 106 -31 114 -35 18 -10 25
-8 -125 -50 -271 -77 -424 -175 -532 -342 -65 -100 -109 -215 -163 -427 -6
-24 -15 -40 -20 -35 -4 5 -24 68 -44 139 -46 164 -125 329 -196 408 -105 117
-247 194 -470 257 -149 42 -155 45 -100 59 128 32 256 78 350 124 88 43 118
64 186 132 70 70 89 96 137 195 33 68 71 167 92 240 43 151 44 154 51 148 2
-3 20 -61 39 -129z"/>
<path d="M2285 1364 c-12 -98 -55 -246 -95 -330 -78 -161 -210 -238 -500 -290
-52 -10 -90 -19 -85 -20 6 -2 57 -13 113 -24 277 -55 393 -126 471 -283 41
-84 84 -231 96 -331 4 -32 11 -54 15 -49 4 4 12 42 19 83 17 101 57 232 93
304 79 157 189 217 543 293 40 9 39 9 -50 27 -127 25 -250 63 -318 99 -63 33
-142 112 -175 175 -30 59 -79 219 -93 309 -6 43 -15 82 -19 86 -4 5 -11 -17
-15 -49z m34 -216 c7 -24 30 -80 51 -125 61 -131 151 -208 308 -263 40 -15 72
-31 70 -36 -1 -5 -39 -23 -83 -39 -154 -58 -241 -137 -304 -276 -16 -35 -34
-83 -40 -106 -7 -24 -15 -43 -20 -43 -5 0 -22 39 -40 88 -66 185 -178 291
-378 356 -29 10 -53 19 -53 21 0 1 34 14 75 29 200 71 301 173 365 369 12 37
25 67 29 67 4 0 13 -19 20 -42z"/>
</g>
</svg>
