<?xml version="1.0" encoding="UTF-8" standalone="no"?>
<!DOCTYPE svg PUBLIC "-//W3C//DTD SVG 1.1//EN" "http://www.w3.org/Graphics/SVG/1.1/DTD/svg11.dtd">
<svg xmlns="http://www.w3.org/2000/svg" version="1.1" viewBox="0.00 0.00 500.00 500.00">
<g stroke-width="2.00" fill="none" stroke-linecap="butt">
<path stroke="#f5af94" vector-effect="non-scaling-stroke" d="
  M 253.51 219.73
  A 7.04 7.04 0.0 0 0 246.47 212.69
  A 7.04 7.04 0.0 0 0 239.43 219.73
  A 7.04 7.04 0.0 0 0 246.47 226.77
  A 7.04 7.04 0.0 0 0 253.51 219.73"
/>
<path stroke="#f5af94" vector-effect="non-scaling-stroke" d="
  M 273.01 268.31
  A 0.30 0.30 0.0 0 1 273.54 268.12
  C 279.63 275.52 292.27 274.89 298.74 268.49
  C 303.97 263.32 305.40 255.97 304.52 248.76
  C 303.38 239.28 297.11 232.07 287.26 231.26
  Q 278.82 230.56 273.64 236.21
  Q 272.96 236.95 272.96 235.95
  L 272.94 216.72
  Q 272.94 216.00 272.22 216.00
  L 260.23 216.00
  Q 259.72 216.00 259.72 216.52
  L 259.71 272.34
  Q 259.71 272.97 260.34 272.98
  L 272.24 272.99
  A 0.74 0.73 0.0 0 0 272.98 272.26
  L 273.01 268.31"
/>
<path stroke="#f5af94" vector-effect="non-scaling-stroke" d="
  M 321.86 268.43
  Q 328.42 275.05 338.47 272.96
  C 349.48 270.66 353.76 260.28 352.81 249.59
  C 351.73 237.42 342.74 229.69 330.34 231.48
  C 327.14 231.95 324.06 233.84 321.88 236.22
  Q 321.23 236.94 321.23 235.97
  L 321.24 216.62
  Q 321.24 216.00 320.62 216.00
  L 308.48 216.00
  Q 307.96 216.00 307.96 216.52
  L 307.99 272.49
  A 0.50 0.50 0.0 0 0 308.49 272.99
  L 320.27 272.99
  Q 321.27 272.99 321.25 271.98
  L 321.18 268.72
  Q 321.16 267.72 321.86 268.43"
/>
<path stroke="#f5af94" vector-effect="non-scaling-stroke" d="
  M 169.65 258.29
  C 172.00 266.80 178.48 272.27 187.24 273.25
  C 195.46 274.16 204.09 271.88 208.73 264.70
  A 0.93 0.93 0.0 0 0 208.42 263.40
  L 200.13 258.50
  Q 199.67 258.22 199.35 258.66
  Q 196.10 263.21 190.29 262.80
  C 180.61 262.13 179.87 245.86 187.97 242.56
  Q 193.81 240.19 199.43 245.79
  Q 199.71 246.07 200.04 245.86
  Q 204.63 243.03 208.93 240.53
  A 0.15 0.15 0.0 0 0 208.98 240.31
  Q 202.79 231.50 192.00 231.26
  Q 171.56 230.81 168.96 251.25
  Q 168.86 252.04 168.54 251.32
  Q 165.99 245.55 159.99 243.24
  Q 154.79 241.24 148.27 239.43
  C 145.10 238.55 139.20 235.72 141.79 231.65
  C 145.13 226.40 159.46 232.61 163.74 234.97
  A 0.59 0.57 27.0 0 0 164.54 234.72
  L 169.19 225.26
  A 0.87 0.86 -62.0 0 0 168.85 224.13
  Q 157.72 217.74 144.84 218.81
  C 136.36 219.52 127.65 224.00 126.97 233.54
  C 126.56 239.25 128.84 244.31 133.87 246.89
  C 138.62 249.33 143.85 250.71 149.13 252.14
  Q 153.09 253.22 154.56 255.56
  Q 156.57 258.72 153.51 261.07
  C 150.40 263.46 143.49 262.04 140.13 260.82
  Q 134.11 258.63 129.37 254.79
  Q 128.84 254.36 128.53 254.97
  L 123.95 264.07
  A 1.15 1.15 0.0 0 0 124.31 265.51
  C 134.97 273.20 151.14 276.77 162.76 269.61
  Q 169.08 265.71 169.38 258.32
  Q 169.42 257.46 169.65 258.29"
/>
<path stroke="#f5af94" vector-effect="non-scaling-stroke" d="
  M 224.54 237.01
  L 224.70 232.55
  A 0.91 0.91 0.0 0 0 223.79 231.61
  L 211.70 231.61
  A 0.44 0.43 90.0 0 0 211.27 232.05
  L 211.27 272.25
  A 0.74 0.73 90.0 0 0 212.00 272.99
  L 223.97 273.00
  A 0.59 0.58 -0.0 0 0 224.56 272.42
  Q 224.54 263.23 224.55 252.99
  C 224.55 245.80 230.81 242.38 237.43 242.96
  A 0.54 0.54 0.0 0 0 238.02 242.42
  L 238.02 231.55
  Q 238.02 231.00 237.47 231.03
  Q 229.73 231.42 225.37 237.30
  Q 224.49 238.50 224.54 237.01"
/>
<path stroke="#f5af94" vector-effect="non-scaling-stroke" d="
  M 252.99 232.15
  A 0.54 0.54 0.0 0 0 252.45 231.61
  L 240.31 231.61
  A 0.54 0.54 0.0 0 0 239.77 232.15
  L 239.77 272.45
  A 0.54 0.54 0.0 0 0 240.31 272.99
  L 252.45 272.99
  A 0.54 0.54 0.0 0 0 252.99 272.45
  L 252.99 232.15"
/>
<path stroke="#f5af94" vector-effect="non-scaling-stroke" d="
  M 282.0651 263.0196
  A 10.88 9.33 90.5 0 0 291.4896 252.2214
  A 10.88 9.33 90.5 0 0 282.2549 241.2604
  A 10.88 9.33 90.5 0 0 272.8304 252.0586
  A 10.88 9.33 90.5 0 0 282.0651 263.0196"
/>
<path stroke="#f5af94" vector-effect="non-scaling-stroke" d="
  M 330.3060 263.0394
  A 10.89 9.31 90.6 0 0 339.7295 252.2475
  A 10.89 9.31 90.6 0 0 330.5340 241.2606
  A 10.89 9.31 90.6 0 0 321.1105 252.0525
  A 10.89 9.31 90.6 0 0 330.3060 263.0394"
/>
</g>
<path fill="#eb5e28" d="
  M 399.70 211.25
  C 386.25 237.34 373.11 262.74 359.64 289.10
  Q 355.04 298.11 345.98 301.29
  Q 341.56 302.83 336.84 302.84
  Q 191.64 303.09 84.16 302.87
  C 82.29 302.87 78.82 302.24 77.37 300.97
  Q 72.01 296.29 75.36 289.82
  Q 96.16 249.75 116.39 210.05
  Q 120.70 201.58 129.10 198.52
  Q 133.57 196.89 141.69 196.90
  Q 267.74 197.10 391.84 196.98
  Q 396.96 196.97 399.81 200.52
  C 402.51 203.88 401.52 207.72 399.70 211.25
  Z
  M 253.51 219.73
  A 7.04 7.04 0.0 0 0 246.47 212.69
  A 7.04 7.04 0.0 0 0 239.43 219.73
  A 7.04 7.04 0.0 0 0 246.47 226.77
  A 7.04 7.04 0.0 0 0 253.51 219.73
  Z
  M 273.01 268.31
  A 0.30 0.30 0.0 0 1 273.54 268.12
  C 279.63 275.52 292.27 274.89 298.74 268.49
  C 303.97 263.32 305.40 255.97 304.52 248.76
  C 303.38 239.28 297.11 232.07 287.26 231.26
  Q 278.82 230.56 273.64 236.21
  Q 272.96 236.95 272.96 235.95
  L 272.94 216.72
  Q 272.94 216.00 272.22 216.00
  L 260.23 216.00
  Q 259.72 216.00 259.72 216.52
  L 259.71 272.34
  Q 259.71 272.97 260.34 272.98
  L 272.24 272.99
  A 0.74 0.73 0.0 0 0 272.98 272.26
  L 273.01 268.31
  Z
  M 321.86 268.43
  Q 328.42 275.05 338.47 272.96
  C 349.48 270.66 353.76 260.28 352.81 249.59
  C 351.73 237.42 342.74 229.69 330.34 231.48
  C 327.14 231.95 324.06 233.84 321.88 236.22
  Q 321.23 236.94 321.23 235.97
  L 321.24 216.62
  Q 321.24 216.00 320.62 216.00
  L 308.48 216.00
  Q 307.96 216.00 307.96 216.52
  L 307.99 272.49
  A 0.50 0.50 0.0 0 0 308.49 272.99
  L 320.27 272.99
  Q 321.27 272.99 321.25 271.98
  L 321.18 268.72
  Q 321.16 267.72 321.86 268.43
  Z
  M 169.65 258.29
  C 172.00 266.80 178.48 272.27 187.24 273.25
  C 195.46 274.16 204.09 271.88 208.73 264.70
  A 0.93 0.93 0.0 0 0 208.42 263.40
  L 200.13 258.50
  Q 199.67 258.22 199.35 258.66
  Q 196.10 263.21 190.29 262.80
  C 180.61 262.13 179.87 245.86 187.97 242.56
  Q 193.81 240.19 199.43 245.79
  Q 199.71 246.07 200.04 245.86
  Q 204.63 243.03 208.93 240.53
  A 0.15 0.15 0.0 0 0 208.98 240.31
  Q 202.79 231.50 192.00 231.26
  Q 171.56 230.81 168.96 251.25
  Q 168.86 252.04 168.54 251.32
  Q 165.99 245.55 159.99 243.24
  Q 154.79 241.24 148.27 239.43
  C 145.10 238.55 139.20 235.72 141.79 231.65
  C 145.13 226.40 159.46 232.61 163.74 234.97
  A 0.59 0.57 27.0 0 0 164.54 234.72
  L 169.19 225.26
  A 0.87 0.86 -62.0 0 0 168.85 224.13
  Q 157.72 217.74 144.84 218.81
  C 136.36 219.52 127.65 224.00 126.97 233.54
  C 126.56 239.25 128.84 244.31 133.87 246.89
  C 138.62 249.33 143.85 250.71 149.13 252.14
  Q 153.09 253.22 154.56 255.56
  Q 156.57 258.72 153.51 261.07
  C 150.40 263.46 143.49 262.04 140.13 260.82
  Q 134.11 258.63 129.37 254.79
  Q 128.84 254.36 128.53 254.97
  L 123.95 264.07
  A 1.15 1.15 0.0 0 0 124.31 265.51
  C 134.97 273.20 151.14 276.77 162.76 269.61
  Q 169.08 265.71 169.38 258.32
  Q 169.42 257.46 169.65 258.29
  Z
  M 224.54 237.01
  L 224.70 232.55
  A 0.91 0.91 0.0 0 0 223.79 231.61
  L 211.70 231.61
  A 0.44 0.43 90.0 0 0 211.27 232.05
  L 211.27 272.25
  A 0.74 0.73 90.0 0 0 212.00 272.99
  L 223.97 273.00
  A 0.59 0.58 -0.0 0 0 224.56 272.42
  Q 224.54 263.23 224.55 252.99
  C 224.55 245.80 230.81 242.38 237.43 242.96
  A 0.54 0.54 0.0 0 0 238.02 242.42
  L 238.02 231.55
  Q 238.02 231.00 237.47 231.03
  Q 229.73 231.42 225.37 237.30
  Q 224.49 238.50 224.54 237.01
  Z
  M 252.99 232.15
  A 0.54 0.54 0.0 0 0 252.45 231.61
  L 240.31 231.61
  A 0.54 0.54 0.0 0 0 239.77 232.15
  L 239.77 272.45
  A 0.54 0.54 0.0 0 0 240.31 272.99
  L 252.45 272.99
  A 0.54 0.54 0.0 0 0 252.99 272.45
  L 252.99 232.15
  Z"
/>
<circle fill="#ffffff" cx="246.47" cy="219.73" r="7.04"/>
<path fill="#ffffff" d="
  M 273.01 268.31
  L 272.98 272.26
  A 0.74 0.73 -0.0 0 1 272.24 272.99
  L 260.34 272.98
  Q 259.71 272.97 259.71 272.34
  L 259.72 216.52
  Q 259.72 216.00 260.23 216.00
  L 272.22 216.00
  Q 272.94 216.00 272.94 216.72
  L 272.96 235.95
  Q 272.96 236.95 273.64 236.21
  Q 278.82 230.56 287.26 231.26
  C 297.11 232.07 303.38 239.28 304.52 248.76
  C 305.40 255.97 303.97 263.32 298.74 268.49
  C 292.27 274.89 279.63 275.52 273.54 268.12
  A 0.30 0.30 0.0 0 0 273.01 268.31
  Z
  M 282.0651 263.0196
  A 10.88 9.33 90.5 0 0 291.4896 252.2214
  A 10.88 9.33 90.5 0 0 282.2549 241.2604
  A 10.88 9.33 90.5 0 0 272.8304 252.0586
  A 10.88 9.33 90.5 0 0 282.0651 263.0196
  Z"
/>
<path fill="#ffffff" d="
  M 321.18 268.72
  L 321.25 271.98
  Q 321.27 272.99 320.27 272.99
  L 308.49 272.99
  A 0.50 0.50 0.0 0 1 307.99 272.49
  L 307.96 216.52
  Q 307.96 216.00 308.48 216.00
  L 320.62 216.00
  Q 321.24 216.00 321.24 216.62
  L 321.23 235.97
  Q 321.23 236.94 321.88 236.22
  C 324.06 233.84 327.14 231.95 330.34 231.48
  C 342.74 229.69 351.73 237.42 352.81 249.59
  C 353.76 260.28 349.48 270.66 338.47 272.96
  Q 328.42 275.05 321.86 268.43
  Q 321.16 267.72 321.18 268.72
  Z
  M 330.3060 263.0394
  A 10.89 9.31 90.6 0 0 339.7295 252.2475
  A 10.89 9.31 90.6 0 0 330.5340 241.2606
  A 10.89 9.31 90.6 0 0 321.1105 252.0525
  A 10.89 9.31 90.6 0 0 330.3060 263.0394
  Z"
/>
<path fill="#ffffff" d="
  M 169.38 258.32
  Q 169.08 265.71 162.76 269.61
  C 151.14 276.77 134.97 273.20 124.31 265.51
  A 1.15 1.15 0.0 0 1 123.95 264.07
  L 128.53 254.97
  Q 128.84 254.36 129.37 254.79
  Q 134.11 258.63 140.13 260.82
  C 143.49 262.04 150.40 263.46 153.51 261.07
  Q 156.57 258.72 154.56 255.56
  Q 153.09 253.22 149.13 252.14
  C 143.85 250.71 138.62 249.33 133.87 246.89
  C 128.84 244.31 126.56 239.25 126.97 233.54
  C 127.65 224.00 136.36 219.52 144.84 218.81
  Q 157.72 217.74 168.85 224.13
  A 0.87 0.86 -62.0 0 1 169.19 225.26
  L 164.54 234.72
  A 0.59 0.57 27.0 0 1 163.74 234.97
  C 159.46 232.61 145.13 226.40 141.79 231.65
  C 139.20 235.72 145.10 238.55 148.27 239.43
  Q 154.79 241.24 159.99 243.24
  Q 165.99 245.55 168.54 251.32
  Q 168.86 252.04 168.96 251.25
  Q 171.56 230.81 192.00 231.26
  Q 202.79 231.50 208.98 240.31
  A 0.15 0.15 0.0 0 1 208.93 240.53
  Q 204.63 243.03 200.04 245.86
  Q 199.71 246.07 199.43 245.79
  Q 193.81 240.19 187.97 242.56
  C 179.87 245.86 180.61 262.13 190.29 262.80
  Q 196.10 263.21 199.35 258.66
  Q 199.67 258.22 200.13 258.50
  L 208.42 263.40
  A 0.93 0.93 0.0 0 1 208.73 264.70
  C 204.09 271.88 195.46 274.16 187.24 273.25
  C 178.48 272.27 172.00 266.80 169.65 258.29
  Q 169.42 257.46 169.38 258.32
  Z"
/>
<path fill="#ffffff" d="
  M 224.54 237.01
  Q 224.49 238.50 225.37 237.30
  Q 229.73 231.42 237.47 231.03
  Q 238.02 231.00 238.02 231.55
  L 238.02 242.42
  A 0.54 0.54 0.0 0 1 237.43 242.96
  C 230.81 242.38 224.55 245.80 224.55 252.99
  Q 224.54 263.23 224.56 272.42
  A 0.59 0.58 0.0 0 1 223.97 273.00
  L 212.00 272.99
  A 0.74 0.73 -90.0 0 1 211.27 272.25
  L 211.27 232.05
  A 0.44 0.43 90.0 0 1 211.70 231.61
  L 223.79 231.61
  A 0.91 0.91 0.0 0 1 224.70 232.55
  L 224.54 237.01
  Z"
/>
<rect fill="#ffffff" x="239.77" y="231.61" width="13.22" height="41.38" rx="0.54"/>
<ellipse fill="#eb5e28" cx="0.00" cy="0.00" transform="translate(282.16,252.14) rotate(90.5)" rx="10.88" ry="9.33"/>
<ellipse fill="#eb5e28" cx="0.00" cy="0.00" transform="translate(330.42,252.15) rotate(90.6)" rx="10.89" ry="9.31"/>
</svg>
