<?xml version="1.0" encoding="UTF-8" standalone="no"?>
<!DOCTYPE svg PUBLIC "-//W3C//DTD SVG 1.1//EN" "http://www.w3.org/Graphics/SVG/1.1/DTD/svg11.dtd">
<svg xmlns="http://www.w3.org/2000/svg" version="1.1" viewBox="0.00 0.00 338.00 120.00">
<g stroke-width="2.00" fill="none" stroke-linecap="butt">
<path stroke="#f5af94" vector-effect="non-scaling-stroke" d="
  M 187.50 29.72
  A 7.03 7.03 0.0 0 0 180.47 22.69
  A 7.03 7.03 0.0 0 0 173.44 29.72
  A 7.03 7.03 0.0 0 0 180.47 36.75
  A 7.03 7.03 0.0 0 0 187.50 29.72"
/>
<path stroke="#f5af94" vector-effect="non-scaling-stroke" d="
  M 206.97 46.01
  L 206.94 26.72
  Q 206.94 26.00 206.22 26.00
  L 194.24 26.00
  Q 193.72 26.00 193.72 26.51
  L 193.71 82.58
  A 0.38 0.37 -90.0 0 0 194.08 82.96
  L 206.24 83.00
  A 0.75 0.74 0.0 0 0 206.99 82.26
  L 207.00 78.75
  Q 207.00 77.58 207.78 78.45
  C 214.02 85.37 225.82 84.79 232.24 78.94
  Q 237.85 73.84 238.61 65.29
  C 239.84 51.51 232.08 39.98 217.07 41.35
  Q 211.59 41.86 207.63 46.27
  Q 206.98 47.00 206.97 46.01"
/>
<path stroke="#f5af94" vector-effect="non-scaling-stroke" d="
  M 255.89 78.43
  C 263.33 86.14 276.70 84.77 282.99 76.18
  C 287.40 70.15 287.97 60.94 285.73 54.14
  Q 283.26 46.65 276.64 43.23
  C 270.01 39.79 261.34 40.40 255.87 46.23
  Q 255.23 46.92 255.23 45.98
  L 255.22 26.61
  Q 255.22 26.00 254.61 26.00
  L 242.49 26.00
  Q 241.97 26.00 241.97 26.52
  L 241.99 82.23
  Q 241.99 82.98 242.73 82.98
  L 254.61 82.98
  A 0.65 0.65 0.0 0 0 255.26 82.31
  L 255.19 78.72
  Q 255.17 77.68 255.89 78.43"
/>
<path stroke="#f5af94" vector-effect="non-scaling-stroke" d="
  M 103.72 68.55
  Q 107.34 80.43 119.20 82.89
  C 127.61 84.64 137.64 82.49 142.63 74.84
  A 1.09 1.09 0.0 0 0 142.27 73.31
  L 134.15 68.52
  Q 133.66 68.23 133.33 68.69
  Q 129.90 73.41 123.87 72.75
  C 113.59 71.64 113.81 51.77 125.29 51.89
  C 128.57 51.93 130.98 53.33 133.21 55.60
  Q 133.66 56.06 134.20 55.73
  L 142.26 50.89
  A 0.88 0.87 -33.8 0 0 142.52 49.62
  Q 137.84 43.25 130.02 41.75
  C 119.01 39.63 108.70 43.50 104.43 54.22
  C 103.54 56.46 103.40 58.86 103.14 61.22
  Q 103.03 62.24 102.59 61.31
  Q 99.53 54.81 92.23 52.55
  Q 86.08 50.65 80.25 48.68
  C 77.38 47.71 73.50 44.75 75.89 41.46
  Q 76.72 40.31 78.15 40.04
  C 84.62 38.79 91.96 41.89 97.70 44.92
  A 0.66 0.65 -62.9 0 0 98.59 44.63
  L 103.21 35.22
  A 0.81 0.81 0.0 0 0 102.89 34.16
  Q 92.92 28.35 81.07 28.67
  C 71.72 28.93 61.99 33.05 61.01 43.27
  C 60.16 52.19 65.22 56.34 72.76 58.98
  Q 77.69 60.72 83.22 62.15
  Q 86.20 62.93 88.09 64.86
  C 90.24 67.07 89.40 70.64 86.47 71.70
  C 79.24 74.29 68.91 69.24 63.36 64.76
  A 0.55 0.55 0.0 0 0 62.53 64.94
  L 57.95 74.09
  A 1.14 1.13 -59.2 0 0 58.31 75.52
  Q 71.54 84.87 86.66 83.12
  C 94.78 82.18 102.81 77.58 103.41 68.59
  Q 103.46 67.71 103.72 68.55"
/>
<path stroke="#f5af94" vector-effect="non-scaling-stroke" d="
  M 158.55 47.30
  L 158.68 42.27
  Q 158.70 41.60 158.02 41.60
  L 145.69 41.64
  A 0.42 0.41 90.0 0 0 145.28 42.06
  L 145.26 82.25
  A 0.73 0.73 0.0 0 0 145.99 82.98
  L 157.94 83.00
  A 0.65 0.65 0.0 0 0 158.59 82.34
  Q 158.52 74.98 158.53 67.77
  Q 158.53 61.42 158.88 60.20
  C 160.44 54.76 165.83 52.50 171.22 52.97
  Q 172.01 53.04 172.01 52.25
  L 172.01 41.56
  A 0.55 0.54 -1.0 0 0 171.44 41.02
  Q 163.76 41.37 159.20 47.52
  Q 158.52 48.43 158.55 47.30"
/>
<path stroke="#f5af94" vector-effect="non-scaling-stroke" d="
  M 186.99 42.10
  A 0.48 0.48 0.0 0 0 186.51 41.62
  L 174.25 41.62
  A 0.48 0.48 0.0 0 0 173.77 42.10
  L 173.77 82.50
  A 0.48 0.48 0.0 0 0 174.25 82.98
  L 186.51 82.98
  A 0.48 0.48 0.0 0 0 186.99 82.50
  L 186.99 42.10"
/>
<path stroke="#f5af94" vector-effect="non-scaling-stroke" d="
  M 216.0751 73.0096
  A 10.87 9.32 90.5 0 0 225.4896 62.2213
  A 10.87 9.32 90.5 0 0 216.2649 51.2704
  A 10.87 9.32 90.5 0 0 206.8504 62.0587
  A 10.87 9.32 90.5 0 0 216.0751 73.0096"
/>
<path stroke="#f5af94" vector-effect="non-scaling-stroke" d="
  M 264.3060 73.0394
  A 10.89 9.31 90.6 0 0 273.7295 62.2475
  A 10.89 9.31 90.6 0 0 264.5340 51.2606
  A 10.89 9.31 90.6 0 0 255.1105 62.0525
  A 10.89 9.31 90.6 0 0 264.3060 73.0394"
/>
</g>
<path fill="#eb5e28" d="
  M 333.68 21.24
  C 320.82 46.58 307.00 72.63 294.25 97.94
  Q 291.62 103.17 288.66 106.03
  C 283.05 111.48 276.18 112.86 268.57 112.87
  Q 99.54 113.10 17.92 112.85
  C 14.74 112.84 11.27 111.77 9.40 108.89
  Q 6.77 104.84 9.54 99.50
  Q 30.26 59.54 50.16 20.42
  C 54.96 10.98 62.92 6.97 73.19 6.98
  Q 199.51 7.07 326.49 7.00
  Q 330.85 6.99 333.67 10.35
  C 336.57 13.81 335.54 17.57 333.68 21.24
  Z
  M 187.50 29.72
  A 7.03 7.03 0.0 0 0 180.47 22.69
  A 7.03 7.03 0.0 0 0 173.44 29.72
  A 7.03 7.03 0.0 0 0 180.47 36.75
  A 7.03 7.03 0.0 0 0 187.50 29.72
  Z
  M 206.97 46.01
  L 206.94 26.72
  Q 206.94 26.00 206.22 26.00
  L 194.24 26.00
  Q 193.72 26.00 193.72 26.51
  L 193.71 82.58
  A 0.38 0.37 -90.0 0 0 194.08 82.96
  L 206.24 83.00
  A 0.75 0.74 0.0 0 0 206.99 82.26
  L 207.00 78.75
  Q 207.00 77.58 207.78 78.45
  C 214.02 85.37 225.82 84.79 232.24 78.94
  Q 237.85 73.84 238.61 65.29
  C 239.84 51.51 232.08 39.98 217.07 41.35
  Q 211.59 41.86 207.63 46.27
  Q 206.98 47.00 206.97 46.01
  Z
  M 255.89 78.43
  C 263.33 86.14 276.70 84.77 282.99 76.18
  C 287.40 70.15 287.97 60.94 285.73 54.14
  Q 283.26 46.65 276.64 43.23
  C 270.01 39.79 261.34 40.40 255.87 46.23
  Q 255.23 46.92 255.23 45.98
  L 255.22 26.61
  Q 255.22 26.00 254.61 26.00
  L 242.49 26.00
  Q 241.97 26.00 241.97 26.52
  L 241.99 82.23
  Q 241.99 82.98 242.73 82.98
  L 254.61 82.98
  A 0.65 0.65 0.0 0 0 255.26 82.31
  L 255.19 78.72
  Q 255.17 77.68 255.89 78.43
  Z
  M 103.72 68.55
  Q 107.34 80.43 119.20 82.89
  C 127.61 84.64 137.64 82.49 142.63 74.84
  A 1.09 1.09 0.0 0 0 142.27 73.31
  L 134.15 68.52
  Q 133.66 68.23 133.33 68.69
  Q 129.90 73.41 123.87 72.75
  C 113.59 71.64 113.81 51.77 125.29 51.89
  C 128.57 51.93 130.98 53.33 133.21 55.60
  Q 133.66 56.06 134.20 55.73
  L 142.26 50.89
  A 0.88 0.87 -33.8 0 0 142.52 49.62
  Q 137.84 43.25 130.02 41.75
  C 119.01 39.63 108.70 43.50 104.43 54.22
  C 103.54 56.46 103.40 58.86 103.14 61.22
  Q 103.03 62.24 102.59 61.31
  Q 99.53 54.81 92.23 52.55
  Q 86.08 50.65 80.25 48.68
  C 77.38 47.71 73.50 44.75 75.89 41.46
  Q 76.72 40.31 78.15 40.04
  C 84.62 38.79 91.96 41.89 97.70 44.92
  A 0.66 0.65 -62.9 0 0 98.59 44.63
  L 103.21 35.22
  A 0.81 0.81 0.0 0 0 102.89 34.16
  Q 92.92 28.35 81.07 28.67
  C 71.72 28.93 61.99 33.05 61.01 43.27
  C 60.16 52.19 65.22 56.34 72.76 58.98
  Q 77.69 60.72 83.22 62.15
  Q 86.20 62.93 88.09 64.86
  C 90.24 67.07 89.40 70.64 86.47 71.70
  C 79.24 74.29 68.91 69.24 63.36 64.76
  A 0.55 0.55 0.0 0 0 62.53 64.94
  L 57.95 74.09
  A 1.14 1.13 -59.2 0 0 58.31 75.52
  Q 71.54 84.87 86.66 83.12
  C 94.78 82.18 102.81 77.58 103.41 68.59
  Q 103.46 67.71 103.72 68.55
  Z
  M 158.55 47.30
  L 158.68 42.27
  Q 158.70 41.60 158.02 41.60
  L 145.69 41.64
  A 0.42 0.41 90.0 0 0 145.28 42.06
  L 145.26 82.25
  A 0.73 0.73 0.0 0 0 145.99 82.98
  L 157.94 83.00
  A 0.65 0.65 0.0 0 0 158.59 82.34
  Q 158.52 74.98 158.53 67.77
  Q 158.53 61.42 158.88 60.20
  C 160.44 54.76 165.83 52.50 171.22 52.97
  Q 172.01 53.04 172.01 52.25
  L 172.01 41.56
  A 0.55 0.54 -1.0 0 0 171.44 41.02
  Q 163.76 41.37 159.20 47.52
  Q 158.52 48.43 158.55 47.30
  Z
  M 186.99 42.10
  A 0.48 0.48 0.0 0 0 186.51 41.62
  L 174.25 41.62
  A 0.48 0.48 0.0 0 0 173.77 42.10
  L 173.77 82.50
  A 0.48 0.48 0.0 0 0 174.25 82.98
  L 186.51 82.98
  A 0.48 0.48 0.0 0 0 186.99 82.50
  L 186.99 42.10
  Z"
/>
<circle fill="#ffffff" cx="180.47" cy="29.72" r="7.03"/>
<path fill="#ffffff" d="
  M 206.97 46.01
  Q 206.98 47.00 207.63 46.27
  Q 211.59 41.86 217.07 41.35
  C 232.08 39.98 239.84 51.51 238.61 65.29
  Q 237.85 73.84 232.24 78.94
  C 225.82 84.79 214.02 85.37 207.78 78.45
  Q 207.00 77.58 207.00 78.75
  L 206.99 82.26
  A 0.75 0.74 -0.0 0 1 206.24 83.00
  L 194.08 82.96
  A 0.38 0.37 90.0 0 1 193.71 82.58
  L 193.72 26.51
  Q 193.72 26.00 194.24 26.00
  L 206.22 26.00
  Q 206.94 26.00 206.94 26.72
  L 206.97 46.01
  Z
  M 216.0751 73.0096
  A 10.87 9.32 90.5 0 0 225.4896 62.2213
  A 10.87 9.32 90.5 0 0 216.2649 51.2704
  A 10.87 9.32 90.5 0 0 206.8504 62.0587
  A 10.87 9.32 90.5 0 0 216.0751 73.0096
  Z"
/>
<path fill="#ffffff" d="
  M 255.19 78.72
  L 255.26 82.31
  A 0.65 0.65 0.0 0 1 254.61 82.98
  L 242.73 82.98
  Q 241.99 82.98 241.99 82.23
  L 241.97 26.52
  Q 241.97 26.00 242.49 26.00
  L 254.61 26.00
  Q 255.22 26.00 255.22 26.61
  L 255.23 45.98
  Q 255.23 46.92 255.87 46.23
  C 261.34 40.40 270.01 39.79 276.64 43.23
  Q 283.26 46.65 285.73 54.14
  C 287.97 60.94 287.40 70.15 282.99 76.18
  C 276.70 84.77 263.33 86.14 255.89 78.43
  Q 255.17 77.68 255.19 78.72
  Z
  M 264.3060 73.0394
  A 10.89 9.31 90.6 0 0 273.7295 62.2475
  A 10.89 9.31 90.6 0 0 264.5340 51.2606
  A 10.89 9.31 90.6 0 0 255.1105 62.0525
  A 10.89 9.31 90.6 0 0 264.3060 73.0394
  Z"
/>
<path fill="#ffffff" d="
  M 103.41 68.59
  C 102.81 77.58 94.78 82.18 86.66 83.12
  Q 71.54 84.87 58.31 75.52
  A 1.14 1.13 -59.2 0 1 57.95 74.09
  L 62.53 64.94
  A 0.55 0.55 0.0 0 1 63.36 64.76
  C 68.91 69.24 79.24 74.29 86.47 71.70
  C 89.40 70.64 90.24 67.07 88.09 64.86
  Q 86.20 62.93 83.22 62.15
  Q 77.69 60.72 72.76 58.98
  C 65.22 56.34 60.16 52.19 61.01 43.27
  C 61.99 33.05 71.72 28.93 81.07 28.67
  Q 92.92 28.35 102.89 34.16
  A 0.81 0.81 0.0 0 1 103.21 35.22
  L 98.59 44.63
  A 0.66 0.65 -62.9 0 1 97.70 44.92
  C 91.96 41.89 84.62 38.79 78.15 40.04
  Q 76.72 40.31 75.89 41.46
  C 73.50 44.75 77.38 47.71 80.25 48.68
  Q 86.08 50.65 92.23 52.55
  Q 99.53 54.81 102.59 61.31
  Q 103.03 62.24 103.14 61.22
  C 103.40 58.86 103.54 56.46 104.43 54.22
  C 108.70 43.50 119.01 39.63 130.02 41.75
  Q 137.84 43.25 142.52 49.62
  A 0.88 0.87 -33.8 0 1 142.26 50.89
  L 134.20 55.73
  Q 133.66 56.06 133.21 55.60
  C 130.98 53.33 128.57 51.93 125.29 51.89
  C 113.81 51.77 113.59 71.64 123.87 72.75
  Q 129.90 73.41 133.33 68.69
  Q 133.66 68.23 134.15 68.52
  L 142.27 73.31
  A 1.09 1.09 0.0 0 1 142.63 74.84
  C 137.64 82.49 127.61 84.64 119.20 82.89
  Q 107.34 80.43 103.72 68.55
  Q 103.46 67.71 103.41 68.59
  Z"
/>
<path fill="#ffffff" d="
  M 158.55 47.30
  Q 158.52 48.43 159.20 47.52
  Q 163.76 41.37 171.44 41.02
  A 0.55 0.54 -1.0 0 1 172.01 41.56
  L 172.01 52.25
  Q 172.01 53.04 171.22 52.97
  C 165.83 52.50 160.44 54.76 158.88 60.20
  Q 158.53 61.42 158.53 67.77
  Q 158.52 74.98 158.59 82.34
  A 0.65 0.65 0.0 0 1 157.94 83.00
  L 145.99 82.98
  A 0.73 0.73 0.0 0 1 145.26 82.25
  L 145.28 42.06
  A 0.42 0.41 90.0 0 1 145.69 41.64
  L 158.02 41.60
  Q 158.70 41.60 158.68 42.27
  L 158.55 47.30
  Z"
/>
<rect fill="#ffffff" x="173.77" y="41.62" width="13.22" height="41.36" rx="0.48"/>
<ellipse fill="#eb5e28" cx="0.00" cy="0.00" transform="translate(216.17,62.14) rotate(90.5)" rx="10.87" ry="9.32"/>
<ellipse fill="#eb5e28" cx="0.00" cy="0.00" transform="translate(264.42,62.15) rotate(90.6)" rx="10.89" ry="9.31"/>
</svg>
