<?xml version="1.0" encoding="UTF-8" standalone="no"?>
<!DOCTYPE svg PUBLIC "-//W3C//DTD SVG 1.1//EN" "http://www.w3.org/Graphics/SVG/1.1/DTD/svg11.dtd">
<svg xmlns="http://www.w3.org/2000/svg" version="1.1" viewBox="0.00 0.00 500.00 500.00">
<path fill="#eb5e28" d="
  M 75.16 289.74
  C 87.94 264.85 100.74 239.95 113.56 215.11
  Q 118.43 205.69 120.87 203.45
  C 126.04 198.70 131.45 196.96 138.28 196.97
  Q 266.89 197.07 392.94 196.95
  C 397.88 196.94 402.51 201.37 401.61 206.50
  Q 401.17 208.97 399.63 211.95
  Q 380.54 248.81 359.79 289.34
  C 355.02 298.67 347.18 303.01 336.78 303.01
  Q 209.38 302.97 82.49 303.00
  C 75.35 303.00 72.05 295.80 75.16 289.74
  Z
  M 253.53 219.73
  A 7.05 7.05 0.0 0 0 246.48 212.68
  A 7.05 7.05 0.0 0 0 239.43 219.73
  A 7.05 7.05 0.0 0 0 246.48 226.78
  A 7.05 7.05 0.0 0 0 253.53 219.73
  Z
  M 273.60 268.21
  Q 277.14 272.32 282.07 273.06
  C 295.56 275.09 304.22 266.52 304.74 253.72
  C 305.12 244.31 301.07 234.97 291.82 232.16
  Q 280.60 228.75 273.60 236.29
  Q 273.00 236.93 273.00 236.05
  L 273.00 216.50
  Q 273.00 216.00 272.50 216.00
  L 260.25 216.00
  Q 259.74 216.00 259.74 216.50
  L 259.74 272.49
  Q 259.74 273.00 260.24 273.00
  L 272.50 273.00
  Q 273.00 273.00 273.00 272.50
  L 273.00 268.43
  Q 272.99 267.51 273.60 268.21
  Z
  M 321.66 268.05
  C 322.84 269.31 324.10 270.52 325.60 271.39
  C 330.85 274.41 338.68 273.91 343.69 271.00
  C 349.80 267.46 352.73 260.81 352.99 253.78
  C 353.47 240.96 346.23 230.67 332.57 231.20
  C 328.13 231.37 324.63 233.25 321.70 236.43
  Q 321.09 237.10 321.09 236.19
  L 321.17 216.59
  Q 321.17 216.00 320.59 216.00
  L 308.49 215.99
  Q 307.97 215.99 307.97 216.51
  L 307.99 272.75
  Q 307.99 273.00 308.25 273.00
  L 320.73 273.00
  Q 321.21 273.00 321.20 272.52
  L 321.03 268.31
  Q 321.00 267.35 321.66 268.05
  Z
  M 169.28 259.30
  Q 169.37 257.37 169.97 259.21
  C 173.72 270.55 183.71 274.75 194.94 273.06
  Q 204.36 271.65 208.85 264.52
  A 0.77 0.76 31.3 0 0 208.59 263.46
  L 200.07 258.45
  Q 199.58 258.16 199.27 258.64
  Q 196.69 262.69 191.58 262.89
  C 181.54 263.30 179.67 248.27 186.38 243.43
  C 190.34 240.58 196.10 241.87 199.08 245.69
  Q 199.49 246.21 200.06 245.87
  L 208.51 240.77
  A 0.58 0.58 0.0 0 0 208.69 239.95
  C 201.98 229.72 185.37 228.28 176.25 235.95
  Q 169.58 241.54 169.12 251.27
  Q 169.08 252.17 168.59 251.42
  C 168.11 250.67 167.92 249.78 167.38 249.04
  Q 164.04 244.48 159.09 242.84
  Q 153.17 240.88 146.23 238.67
  C 143.45 237.79 139.54 234.75 141.90 231.51
  C 145.51 226.55 159.25 232.53 163.80 235.05
  A 0.55 0.55 0.0 0 0 164.56 234.81
  L 169.20 225.20
  Q 169.48 224.61 168.92 224.26
  C 159.20 218.25 142.94 215.84 133.16 222.75
  C 124.17 229.12 124.60 242.93 135.26 247.57
  Q 140.99 250.07 147.59 251.67
  C 150.94 252.48 156.60 254.52 154.97 259.24
  C 154.06 261.90 150.61 262.43 148.18 262.36
  C 141.78 262.18 134.62 259.04 129.41 254.80
  A 0.59 0.59 0.0 0 0 128.51 255.00
  L 123.99 264.03
  Q 123.52 264.97 124.38 265.57
  Q 138.15 275.23 153.82 272.96
  C 160.93 271.93 168.94 267.20 169.28 259.30
  Z
  M 224.54 237.56
  L 224.58 232.25
  Q 224.58 231.66 224.00 231.66
  L 211.94 231.64
  Q 211.27 231.64 211.27 232.31
  L 211.27 272.51
  Q 211.27 273.00 211.76 273.00
  L 224.00 273.00
  Q 224.60 273.00 224.60 272.40
  Q 224.60 262.68 224.60 253.26
  C 224.60 246.05 230.61 242.08 237.30 243.07
  Q 238.00 243.18 238.00 242.48
  L 238.01 231.51
  Q 238.01 230.99 237.49 231.01
  C 231.80 231.23 228.39 233.51 225.13 237.76
  Q 224.54 238.53 224.54 237.56
  Z
  M 253.00 231.89
  A 0.27 0.27 0.0 0 0 252.73 231.62
  L 240.11 231.62
  A 0.27 0.27 0.0 0 0 239.84 231.89
  L 239.84 272.73
  A 0.27 0.27 0.0 0 0 240.11 273.00
  L 252.73 273.00
  A 0.27 0.27 0.0 0 0 253.00 272.73
  L 253.00 231.89
  Z"
/>
<ellipse fill="#eb5e28" cx="0.00" cy="0.00" transform="translate(282.17,252.17) rotate(90.5)" rx="10.88" ry="9.30"/>
<ellipse fill="#eb5e28" cx="0.00" cy="0.00" transform="translate(330.42,252.17) rotate(90.6)" rx="10.88" ry="9.31"/>
</svg>
